<svg width="20" height="20" viewBox="0 0 20 20" fill="none" xmlns="http://www.w3.org/2000/svg">
<path d="M9.60421 14.6042L6.64337 11.6419C6.60254 11.6009 6.57192 11.5566 6.5515 11.509C6.53108 11.4613 6.52087 11.4132 6.52087 11.3646C6.52087 11.2674 6.55525 11.1823 6.624 11.1094C6.69275 11.0365 6.78337 11 6.89587 11H13.1042C13.2167 11 13.3073 11.0375 13.3761 11.1125C13.4448 11.1875 13.4792 11.275 13.4792 11.375C13.4792 11.3889 13.4384 11.4776 13.3567 11.641L10.3959 14.6042C10.3403 14.6597 10.2778 14.7014 10.2084 14.7292C10.1389 14.7569 10.0695 14.7708 10 14.7708C9.9306 14.7708 9.86115 14.7569 9.79171 14.7292C9.72226 14.7014 9.65976 14.6597 9.60421 14.6042Z" fill="#E6E7F0"/>
<path d="M10.3959 5.16671L13.3567 8.129C13.3976 8.16997 13.4282 8.21428 13.4486 8.26192C13.469 8.30955 13.4792 8.35768 13.4792 8.40629C13.4792 8.50351 13.4449 8.58858 13.3761 8.6615C13.3074 8.73442 13.2167 8.77087 13.1042 8.77087L6.89591 8.77087C6.78341 8.77087 6.69279 8.73337 6.62404 8.65837C6.55529 8.58337 6.52091 8.49587 6.52091 8.39587C6.52091 8.38198 6.56175 8.2933 6.64341 8.12983L9.60425 5.16671C9.6598 5.11115 9.7223 5.06948 9.79175 5.04171C9.86119 5.01393 9.93064 5.00004 10.0001 5.00004C10.0695 5.00004 10.139 5.01393 10.2084 5.04171C10.2779 5.06948 10.3404 5.11115 10.3959 5.16671Z" fill="#E6E7F0"/>
</svg>
