<svg width="21" height="21" viewBox="0 0 21 21" fill="none" xmlns="http://www.w3.org/2000/svg">
<path d="M6.98544 15.2646C7.33266 15.2646 7.6278 15.1431 7.87086 14.9C8.11391 14.6569 8.23544 14.3618 8.23544 14.0146C8.23544 13.6674 8.11391 13.3722 7.87086 13.1292C7.6278 12.8861 7.33266 12.7646 6.98544 12.7646C6.63822 12.7646 6.34308 12.8861 6.10003 13.1292C5.85697 13.3722 5.73544 13.6674 5.73544 14.0146C5.73544 14.3618 5.85697 14.6569 6.10003 14.9C6.34308 15.1431 6.63822 15.2646 6.98544 15.2646ZM6.98544 8.23541C7.33266 8.23541 7.6278 8.11388 7.87086 7.87083C8.11391 7.62777 8.23544 7.33263 8.23544 6.98541C8.23544 6.63819 8.11391 6.34305 7.87086 6.09999C7.6278 5.85694 7.33266 5.73541 6.98544 5.73541C6.63822 5.73541 6.34308 5.85694 6.10003 6.09999C5.85697 6.34305 5.73544 6.63819 5.73544 6.98541C5.73544 7.33263 5.85697 7.62777 6.10003 7.87083C6.34308 8.11388 6.63822 8.23541 6.98544 8.23541ZM10.5 11.75C10.8472 11.75 11.1424 11.6285 11.3854 11.3854C11.6285 11.1424 11.75 10.8472 11.75 10.5C11.75 10.1528 11.6285 9.85763 11.3854 9.61458C11.1424 9.37152 10.8472 9.24999 10.5 9.24999C10.1528 9.24999 9.85766 9.37152 9.61461 9.61458C9.37155 9.85763 9.25003 10.1528 9.25003 10.5C9.25003 10.8472 9.37155 11.1424 9.61461 11.3854C9.85766 11.6285 10.1528 11.75 10.5 11.75ZM14.0146 15.2646C14.3618 15.2646 14.657 15.1431 14.9 14.9C15.1431 14.6569 15.2646 14.3618 15.2646 14.0146C15.2646 13.6674 15.1431 13.3722 14.9 13.1292C14.657 12.8861 14.3618 12.7646 14.0146 12.7646C13.6674 12.7646 13.3722 12.8861 13.1292 13.1292C12.8861 13.3722 12.7646 13.6674 12.7646 14.0146C12.7646 14.3618 12.8861 14.6569 13.1292 14.9C13.3722 15.1431 13.6674 15.2646 14.0146 15.2646ZM14.0146 8.23541C14.3618 8.23541 14.657 8.11388 14.9 7.87083C15.1431 7.62777 15.2646 7.33263 15.2646 6.98541C15.2646 6.63819 15.1431 6.34305 14.9 6.09999C14.657 5.85694 14.3618 5.73541 14.0146 5.73541C13.6674 5.73541 13.3722 5.85694 13.1292 6.09999C12.8861 6.34305 12.7646 6.63819 12.7646 6.98541C12.7646 7.33263 12.8861 7.62777 13.1292 7.87083C13.3722 8.11388 13.6674 8.23541 14.0146 8.23541ZM4.80794 18.4004C4.19266 18.4004 3.67079 18.1862 3.24232 17.7577C2.81385 17.3292 2.59961 16.8074 2.59961 16.1921V4.80791C2.59961 4.19263 2.81385 3.67076 3.24232 3.24229C3.67079 2.81381 4.19266 2.59958 4.80794 2.59958H16.1921C16.8074 2.59958 17.3293 2.81381 17.7577 3.24229C18.1862 3.67076 18.4004 4.19263 18.4004 4.80791V16.1921C18.4004 16.8074 18.1862 17.3292 17.7577 17.7577C17.3293 18.1862 16.8074 18.4004 16.1921 18.4004H4.80794Z" fill="#E8EAED"/>
</svg>
