<svg width="14" height="14" viewBox="0 0 14 14" fill="none" xmlns="http://www.w3.org/2000/svg">
<path d="M6.12498 10.15C5.97623 10.15 5.85154 10.1 5.75091 9.99991C5.65029 9.89987 5.59998 9.77591 5.59998 9.62804C5.59998 9.48016 5.65029 9.35518 5.75091 9.2531C5.85154 9.15102 5.97623 9.09998 6.12498 9.09998H7.87498C8.02373 9.09998 8.14841 9.15 8.24904 9.25004C8.34966 9.35008 8.39998 9.47404 8.39998 9.62191C8.39998 9.76979 8.34966 9.89477 8.24904 9.99685C8.14841 10.0989 8.02373 10.15 7.87498 10.15H6.12498ZM4.02498 7.52498C3.87623 7.52498 3.75154 7.47495 3.65091 7.37491C3.55029 7.27487 3.49998 7.15091 3.49998 7.00304C3.49998 6.85516 3.55029 6.73018 3.65091 6.6281C3.75154 6.52602 3.87623 6.47498 4.02498 6.47498H9.97498C10.1237 6.47498 10.2484 6.525 10.349 6.62504C10.4497 6.72508 10.5 6.84904 10.5 6.99691C10.5 7.14479 10.4497 7.26977 10.349 7.37185C10.2484 7.47393 10.1237 7.52498 9.97498 7.52498H4.02498ZM2.62498 4.89998C2.47623 4.89998 2.35154 4.84996 2.25091 4.74991C2.15029 4.64987 2.09998 4.52591 2.09998 4.37804C2.09998 4.23016 2.15029 4.10518 2.25091 4.0031C2.35154 3.90102 2.47623 3.84998 2.62498 3.84998H11.375C11.5237 3.84998 11.6484 3.9 11.749 4.00004C11.8497 4.10008 11.9 4.22404 11.9 4.37191C11.9 4.51979 11.8497 4.64477 11.749 4.74685C11.6484 4.84893 11.5237 4.89998 11.375 4.89998H2.62498Z" fill="#BFC2D6"/>
</svg>
