<svg width="21" height="20" viewBox="0 0 21 20" fill="none" xmlns="http://www.w3.org/2000/svg">
<g clip-path="url(#clip0_15_442)">
<path d="M0.968323 17.2673V14.51C0.968323 13.9647 1.1102 13.4635 1.39395 13.0065C1.67784 12.5495 2.05499 12.2008 2.52541 11.9602C3.40999 11.5217 4.31228 11.191 5.23228 10.9679C6.15228 10.7447 7.08666 10.6331 8.03541 10.6331C8.99916 10.6331 9.94117 10.7427 10.8614 10.9619C11.7817 11.1812 12.6763 11.51 13.5452 11.9483C14.0156 12.1878 14.3928 12.5349 14.6767 12.9898C14.9604 13.4446 15.1023 13.9512 15.1023 14.5094V17.2673H0.968323ZM16.9456 17.2673V14.3785C16.9456 13.736 16.7794 13.114 16.4471 12.5123C16.1146 11.9105 15.6241 11.3493 14.9756 10.8287C15.5976 10.9278 16.1896 11.0721 16.7519 11.2617C17.3141 11.4514 17.8503 11.6803 18.3604 11.9483C18.8919 12.2261 19.3033 12.5795 19.5946 13.0085C19.886 13.4376 20.0317 13.906 20.0317 14.414V17.2673H16.9456ZM8.03541 9.79979C7.05582 9.79979 6.222 9.45576 5.53395 8.7677C4.84589 8.07951 4.50186 7.24569 4.50186 6.26625C4.50186 5.2868 4.84589 4.45305 5.53395 3.765C6.222 3.0768 7.05582 2.7327 8.03541 2.7327C9.01485 2.7327 9.8486 3.0768 10.5367 3.765C11.2247 4.45305 11.5687 5.2868 11.5687 6.26625C11.5687 7.24569 11.2247 8.07951 10.5367 8.7677C9.8486 9.45576 9.01485 9.79979 8.03541 9.79979ZM16.9456 6.26625C16.9456 7.23791 16.5999 8.06972 15.9083 8.76166C15.2167 9.45375 14.3852 9.79979 13.4139 9.79979C13.2521 9.79979 13.0571 9.78048 12.8287 9.74187C12.6005 9.70326 12.3944 9.65527 12.2102 9.59791C12.6009 9.13764 12.8989 8.62159 13.1042 8.04979C13.3094 7.47784 13.4121 6.88395 13.4121 6.26812C13.4121 5.65215 13.3094 5.05764 13.1042 4.48458C12.8989 3.91152 12.6009 3.39493 12.2102 2.93479C12.4124 2.85743 12.6108 2.80444 12.8052 2.77583C12.9996 2.74708 13.2001 2.7327 13.4067 2.7327C14.3799 2.7327 15.213 3.07868 15.906 3.77062C16.5991 4.46257 16.9456 5.29444 16.9456 6.26625Z" fill="#E8EAED"/>
</g>
<defs>
<clipPath id="clip0_15_442">
<rect width="20" height="20" fill="white" transform="translate(0.5)"/>
</clipPath>
</defs>
</svg>
