<svg width="21" height="21" viewBox="0 0 21 21" fill="none" xmlns="http://www.w3.org/2000/svg">
<path d="M8.08247 16.6042V14.3958H18.4004V16.6042H8.08247ZM8.08247 11.6042V9.39583H18.4004V11.6042H8.08247ZM8.08247 6.60417V4.39583H18.4004V6.60417H8.08247ZM4.49893 17.414C3.97185 17.414 3.52157 17.2263 3.1481 16.8508C2.77463 16.4756 2.58789 16.0243 2.58789 15.4971C2.58789 14.97 2.77553 14.5197 3.15081 14.1463C3.52622 13.7728 3.97747 13.586 4.50456 13.586C5.03164 13.586 5.48199 13.7738 5.8556 14.1492C6.22907 14.5244 6.41581 14.9757 6.41581 15.5029C6.41581 16.03 6.2281 16.4803 5.85268 16.8538C5.47727 17.2272 5.02602 17.414 4.49893 17.414ZM4.49893 12.414C3.97185 12.414 3.52157 12.2263 3.1481 11.8508C2.77463 11.4756 2.58789 11.0243 2.58789 10.4971C2.58789 9.97 2.77553 9.51972 3.15081 9.14625C3.52622 8.77278 3.97747 8.58604 4.50456 8.58604C5.03164 8.58604 5.48199 8.77375 5.8556 9.14917C6.22907 9.52444 6.41581 9.9757 6.41581 10.5029C6.41581 11.03 6.2281 11.4803 5.85268 11.8538C5.47727 12.2272 5.02602 12.414 4.49893 12.414ZM4.49893 7.41396C3.97185 7.41396 3.52157 7.22625 3.1481 6.85083C2.77463 6.47556 2.58789 6.02431 2.58789 5.49708C2.58789 4.97 2.77553 4.51972 3.15081 4.14625C3.52622 3.77278 3.97747 3.58604 4.50456 3.58604C5.03164 3.58604 5.48199 3.77375 5.8556 4.14917C6.22907 4.52444 6.41581 4.9757 6.41581 5.50292C6.41581 6.03 6.2281 6.48028 5.85268 6.85375C5.47727 7.22722 5.02602 7.41396 4.49893 7.41396Z" fill="white"/>
</svg>
