<svg width="16" height="16" viewBox="0 0 16 16" fill="none" xmlns="http://www.w3.org/2000/svg">
<path d="M7.99996 8.00002C7.26663 8.00002 6.63885 7.73891 6.11663 7.21669C5.5944 6.69447 5.33329 6.06669 5.33329 5.33335C5.33329 4.60002 5.5944 3.97224 6.11663 3.45002C6.63885 2.9278 7.26663 2.66669 7.99996 2.66669C8.73329 2.66669 9.36107 2.9278 9.88329 3.45002C10.4055 3.97224 10.6666 4.60002 10.6666 5.33335C10.6666 6.06669 10.4055 6.69447 9.88329 7.21669C9.36107 7.73891 8.73329 8.00002 7.99996 8.00002ZM2.66663 13.3334V11.4667C2.66663 11.0889 2.76385 10.7417 2.95829 10.425C3.15274 10.1084 3.41107 9.86669 3.73329 9.70002C4.42218 9.35558 5.12218 9.09724 5.83329 8.92502C6.5444 8.7528 7.26663 8.66669 7.99996 8.66669C8.73329 8.66669 9.45552 8.7528 10.1666 8.92502C10.8777 9.09724 11.5777 9.35558 12.2666 9.70002C12.5888 9.86669 12.8472 10.1084 13.0416 10.425C13.2361 10.7417 13.3333 11.0889 13.3333 11.4667V13.3334H2.66663Z" fill="white"/>
</svg>
