<svg width="21" height="21" viewBox="0 0 21 21" fill="none" xmlns="http://www.w3.org/2000/svg">
<path d="M15.5 12.1667V9.66671H13V8.00004H15.5V5.50004H17.1667V8.00004H19.6667V9.66671H17.1667V12.1667H15.5ZM8.00004 10.5C7.08337 10.5 6.29865 10.1737 5.64587 9.52087C4.9931 8.8681 4.66671 8.08337 4.66671 7.16671C4.66671 6.25004 4.9931 5.46532 5.64587 4.81254C6.29865 4.15976 7.08337 3.83337 8.00004 3.83337C8.91671 3.83337 9.70143 4.15976 10.3542 4.81254C11.007 5.46532 11.3334 6.25004 11.3334 7.16671C11.3334 8.08337 11.007 8.8681 10.3542 9.52087C9.70143 10.1737 8.91671 10.5 8.00004 10.5ZM1.33337 17.1667V14.8334C1.33337 14.3612 1.4549 13.9271 1.69796 13.5313C1.94101 13.1355 2.26393 12.8334 2.66671 12.625C3.52782 12.1945 4.40282 11.8716 5.29171 11.6563C6.1806 11.441 7.08337 11.3334 8.00004 11.3334C8.91671 11.3334 9.81949 11.441 10.7084 11.6563C11.5973 11.8716 12.4723 12.1945 13.3334 12.625C13.7362 12.8334 14.0591 13.1355 14.3021 13.5313C14.5452 13.9271 14.6667 14.3612 14.6667 14.8334V17.1667H1.33337Z" fill="white"/>
</svg>
