<svg width="16" height="16" viewBox="0 0 16 16" fill="none" xmlns="http://www.w3.org/2000/svg">
<path d="M10.0587 11.1898L11.2087 10.0587L8.808 7.658V4.71383H7.192V8.319L10.0587 11.1898ZM8 14.987C7.02756 14.987 6.11695 14.8039 5.26817 14.4377C4.4195 14.0714 3.68128 13.5744 3.0535 12.9465C2.42561 12.3187 1.92856 11.5805 1.56233 10.7318C1.19611 9.88306 1.013 8.97245 1.013 8C1.013 7.02756 1.19611 6.11695 1.56233 5.26817C1.92856 4.4195 2.42561 3.68128 3.0535 3.0535C3.68128 2.42561 4.4195 1.92856 5.26817 1.56233C6.11695 1.19611 7.02756 1.013 8 1.013C8.97245 1.013 9.88306 1.19611 10.7318 1.56233C11.5805 1.92856 12.3187 2.42561 12.9465 3.0535C13.5744 3.68128 14.0714 4.4195 14.4377 5.26817C14.8039 6.11695 14.987 7.02756 14.987 8C14.987 8.97245 14.8039 9.88306 14.4377 10.7318C14.0714 11.5805 13.5744 12.3187 12.9465 12.9465C12.3187 13.5744 11.5805 14.0714 10.7318 14.4377C9.88306 14.8039 8.97245 14.987 8 14.987Z" fill="white"/>
</svg>
