<svg width="20" height="20" viewBox="0 0 20 20" fill="none" xmlns="http://www.w3.org/2000/svg">
<path d="M9.99999 13.5C10.9722 13.5 11.7986 13.1597 12.4792 12.4792C13.1597 11.7986 13.5 10.9722 13.5 10C13.5 9.02778 13.1597 8.20139 12.4792 7.52083C11.7986 6.84028 10.9722 6.5 9.99999 6.5C9.02777 6.5 8.20138 6.84028 7.52082 7.52083C6.84027 8.20139 6.49999 9.02778 6.49999 10C6.49999 10.9722 6.84027 11.7986 7.52082 12.4792C8.20138 13.1597 9.02777 13.5 9.99999 13.5ZM9.99999 12C9.44443 12 8.97221 11.8056 8.58332 11.4167C8.19443 11.0278 7.99999 10.5556 7.99999 10C7.99999 9.44444 8.19443 8.97222 8.58332 8.58333C8.97221 8.19444 9.44443 8 9.99999 8C10.5555 8 11.0278 8.19444 11.4167 8.58333C11.8055 8.97222 12 9.44444 12 10C12 10.5556 11.8055 11.0278 11.4167 11.4167C11.0278 11.8056 10.5555 12 9.99999 12ZM9.99999 16C8.19443 16 6.53471 15.5174 5.02082 14.5521C3.50693 13.5868 2.30555 12.3125 1.41666 10.7292C1.34721 10.6181 1.2986 10.5016 1.27082 10.3798C1.24305 10.258 1.22916 10.133 1.22916 10.0048C1.22916 9.8766 1.24305 9.75 1.27082 9.625C1.2986 9.5 1.34721 9.38194 1.41666 9.27083C2.30555 7.6875 3.50693 6.41319 5.02082 5.44792C6.53471 4.48264 8.19443 4 9.99999 4C11.8055 4 13.4653 4.48264 14.9792 5.44792C16.493 6.41319 17.6944 7.6875 18.5833 9.27083C18.6528 9.38194 18.7014 9.4984 18.7292 9.62021C18.7569 9.74201 18.7708 9.86701 18.7708 9.99521C18.7708 10.1234 18.7569 10.25 18.7292 10.375C18.7014 10.5 18.6528 10.6181 18.5833 10.7292C17.6944 12.3125 16.493 13.5868 14.9792 14.5521C13.4653 15.5174 11.8055 16 9.99999 16Z" fill="#E6E7F0"/>
</svg>
