<svg width="16" height="16" viewBox="0 0 16 16" fill="none" xmlns="http://www.w3.org/2000/svg">
<path d="M8.00003 10.6667C8.83336 10.6667 9.5417 10.375 10.125 9.79166C10.7084 9.20833 11 8.5 11 7.66666C11 6.83333 10.7084 6.125 10.125 5.54166C9.5417 4.95833 8.83336 4.66666 8.00003 4.66666C7.1667 4.66666 6.45836 4.95833 5.87503 5.54166C5.2917 6.125 5.00003 6.83333 5.00003 7.66666C5.00003 8.5 5.2917 9.20833 5.87503 9.79166C6.45836 10.375 7.1667 10.6667 8.00003 10.6667ZM8.0017 9.26883C7.55714 9.26883 7.1787 9.11322 6.86636 8.802C6.55403 8.49078 6.39786 8.11289 6.39786 7.66833C6.39786 7.22378 6.55347 6.84533 6.8647 6.533C7.17592 6.22066 7.55381 6.0645 7.99836 6.0645C8.44292 6.0645 8.82136 6.22011 9.1337 6.53133C9.44603 6.84255 9.6022 7.22044 9.6022 7.665C9.6022 8.10955 9.44658 8.488 9.13536 8.80033C8.82414 9.11266 8.44625 9.26883 8.0017 9.26883ZM8.00003 12.9587C6.30247 12.9587 4.76347 12.4745 3.38303 11.5062C2.00258 10.5378 0.999806 9.258 0.374695 7.66666C0.999806 6.07533 2.00258 4.7955 3.38303 3.82716C4.76347 2.85883 6.30247 2.37466 8.00003 2.37466C9.69758 2.37466 11.2366 2.85883 12.617 3.82716C13.9975 4.7955 15.0003 6.07533 15.6254 7.66666C15.0003 9.258 13.9975 10.5378 12.617 11.5062C11.2366 12.4745 9.69758 12.9587 8.00003 12.9587Z" fill="white"/>
</svg>
