<svg width="20" height="20" viewBox="0 0 20 20" fill="none" xmlns="http://www.w3.org/2000/svg">
<path d="M15.4792 17.5834L13.2917 15.4167C12.7639 15.5834 12.2257 15.7222 11.6771 15.8334C11.1285 15.9445 10.5695 16 10 16C8.18057 16 6.51043 15.5209 4.98959 14.5625C3.46876 13.6042 2.27084 12.3264 1.39584 10.7292C1.3264 10.6181 1.27779 10.5 1.25001 10.375C1.22223 10.25 1.20834 10.125 1.20834 10C1.20834 9.87502 1.2257 9.75002 1.26043 9.62502C1.29515 9.50002 1.34723 9.38196 1.41668 9.27085C1.7639 8.67363 2.14237 8.10071 2.55209 7.5521C2.96182 7.00349 3.43057 6.50696 3.95834 6.06252L2.39584 4.50002C2.24307 4.34724 2.16668 4.17363 2.16668 3.97919C2.16668 3.78474 2.24307 3.61113 2.39584 3.45835C2.54862 3.30558 2.7257 3.22919 2.92709 3.22919C3.12848 3.22919 3.30557 3.30558 3.45834 3.45835L16.5417 16.5417C16.6945 16.6945 16.7708 16.8681 16.7708 17.0625C16.7708 17.257 16.6945 17.4306 16.5417 17.5834C16.3889 17.7361 16.2118 17.8125 16.0104 17.8125C15.809 17.8125 15.632 17.7361 15.4792 17.5834ZM10 13.5C10.1945 13.5 10.3889 13.4792 10.5833 13.4375C10.7778 13.3959 10.9722 13.3472 11.1667 13.2917L6.70834 8.83335C6.66668 9.0278 6.62154 9.22224 6.57293 9.41669C6.52432 9.61113 6.50001 9.80558 6.50001 10C6.50001 10.9722 6.84029 11.7986 7.52084 12.4792C8.2014 13.1597 9.02779 13.5 10 13.5ZM10 4.00002C11.8195 4.00002 13.4931 4.47919 15.0208 5.43752C16.5486 6.39585 17.75 7.68058 18.625 9.29169C18.6945 9.4028 18.7431 9.51738 18.7708 9.63544C18.7986 9.75349 18.8125 9.87502 18.8125 10C18.8125 10.125 18.7951 10.2465 18.7604 10.3646C18.7257 10.4827 18.6806 10.5972 18.625 10.7084C18.3611 11.1945 18.0695 11.6597 17.75 12.1042C17.4306 12.5486 17.0695 12.9653 16.6667 13.3542C16.5 13.5209 16.2986 13.6007 16.0625 13.5938C15.8264 13.5868 15.625 13.5 15.4583 13.3334L13.5625 11.4375C13.4792 11.3542 13.4236 11.25 13.3958 11.125C13.3681 11 13.3681 10.882 13.3958 10.7709C13.4236 10.6459 13.4479 10.5174 13.4688 10.3854C13.4896 10.2535 13.5 10.125 13.5 10C13.5 9.0278 13.1597 8.20141 12.4792 7.52085C11.7986 6.8403 10.9722 6.50002 10 6.50002C9.86112 6.50002 9.72918 6.51044 9.60418 6.53127C9.47918 6.5521 9.35418 6.57641 9.22918 6.60419C9.11807 6.63196 9.00348 6.63196 8.88543 6.60419C8.76737 6.57641 8.66668 6.52085 8.58334 6.43752L7.72918 5.58335C7.49307 5.34724 7.41668 5.06946 7.50001 4.75002C7.58334 4.43058 7.78473 4.23613 8.10418 4.16669C8.42362 4.09724 8.73959 4.0521 9.05209 4.03127C9.36459 4.01044 9.68057 4.00002 10 4.00002ZM11.5208 8.52085C11.632 8.63196 11.7222 8.75349 11.7917 8.88544C11.8611 9.01738 11.9097 9.15974 11.9375 9.31252C11.9653 9.40974 11.934 9.47919 11.8438 9.52085C11.7535 9.56252 11.6736 9.54863 11.6042 9.47919L10.5417 8.39585C10.4722 8.32641 10.4583 8.24655 10.5 8.15627C10.5417 8.06599 10.6111 8.0278 10.7083 8.04169C10.8611 8.08335 11.007 8.14585 11.1458 8.22919C11.2847 8.31252 11.4097 8.40974 11.5208 8.52085Z" fill="#E6E7F0"/>
</svg>
