<svg width="20" height="20" viewBox="0 0 20 20" fill="none" xmlns="http://www.w3.org/2000/svg">
<path d="M2.33145 17C2.17992 17 2.04707 16.9656 1.93291 16.8969C1.81888 16.8281 1.73013 16.7375 1.66666 16.625C1.59721 16.5139 1.56596 16.3889 1.57291 16.25C1.57985 16.1111 1.61805 15.9792 1.68749 15.8542L9.35416 3.06251C9.4236 2.93751 9.51756 2.84723 9.63603 2.79168C9.75437 2.73612 9.87589 2.70834 10.0006 2.70834C10.1252 2.70834 10.2465 2.73612 10.3646 2.79168C10.4826 2.84723 10.5764 2.93751 10.6458 3.06251L18.3125 15.8542C18.3819 15.9792 18.4201 16.1111 18.4271 16.25C18.434 16.3889 18.4028 16.5139 18.3333 16.625C18.2639 16.7361 18.1736 16.8264 18.0625 16.8958C17.9514 16.9653 17.8201 17 17.6685 17H2.33145ZM9.99562 14.5C10.2069 14.5 10.3854 14.4286 10.5312 14.2856C10.6771 14.1427 10.75 13.9656 10.75 13.7544C10.75 13.5431 10.6785 13.3646 10.5356 13.2188C10.3927 13.0729 10.2156 13 10.0044 13C9.79312 13 9.61457 13.0715 9.46874 13.2144C9.32291 13.3573 9.24999 13.5344 9.24999 13.7456C9.24999 13.9569 9.32145 14.1354 9.46437 14.2813C9.60728 14.4271 9.78437 14.5 9.99562 14.5ZM9.99562 12C10.2069 12 10.3854 11.9281 10.5312 11.7844C10.6771 11.6406 10.75 11.4625 10.75 11.25V8.75001C10.75 8.53751 10.6785 8.35939 10.5356 8.21563C10.3927 8.07188 10.2156 8.00001 10.0044 8.00001C9.79312 8.00001 9.61457 8.07188 9.46874 8.21563C9.32291 8.35939 9.24999 8.53751 9.24999 8.75001V11.25C9.24999 11.4625 9.32145 11.6406 9.46437 11.7844C9.60728 11.9281 9.78437 12 9.99562 12Z" fill="#E6E7F0"/>
</svg>
