<svg width="200" height="200" viewBox="0 0 200 200" fill="none" xmlns="http://www.w3.org/2000/svg">
<path d="M64.6255 1.49862V199H43.0689V46.0826C38.7328 47.3939 34.7994 48.0496 31.2686 48.0496C21.7292 48.0496 14.4508 45.7704 9.43329 41.2121C4.47776 36.6538 2 30.0037 2 21.2617V1.49862H23.5565V18.8264C23.5565 22.8228 24.4238 25.7888 26.1582 27.7245C27.8926 29.5978 30.5252 30.5344 34.0561 30.5344C37.7108 30.5344 40.715 30.0349 43.0689 29.0358V1.49862H64.6255Z" fill="#42BBA7"/>
<path d="M139.019 1.49862V199H117.462V18.6391H97.6709V199H76.1144V1.49862H139.019Z" fill="#42BBA7"/>
<path d="M163.993 173.898C163.993 170.963 164.643 36.5914 165.944 34.6556C167.245 32.6575 169.103 30.5032 171.519 28.1928C173.068 26.6942 174.183 25.4766 174.864 24.5399C175.607 23.6033 175.979 22.6042 175.979 21.5427C175.979 20.169 175.39 19.1074 174.213 18.3581C173.037 17.5464 171.55 17.1405 169.754 17.1405C167.771 17.1405 165.913 17.7337 164.179 18.9201C162.444 20.0441 161.081 21.5739 160.09 23.5096L143.551 15.1736C146.029 10.4279 149.684 6.71258 154.515 4.02755C159.409 1.34252 165.417 0 172.541 0C180.098 0 186.231 1.56107 190.938 4.6832C195.646 7.80532 198 12.2075 198 17.8898C198 20.5124 197.535 22.8228 196.606 24.8209C195.739 26.7567 194.686 28.4114 193.447 29.7851C192.208 31.0964 190.629 32.5638 188.708 34.1873C186.726 35.9357 185.301 37.3407 184.434 38.4022C183.567 39.4637 183.133 172.587 183.133 173.898H163.993ZM173.563 199.937C169.97 199.937 167.028 198.844 164.736 196.658C162.444 194.473 161.298 191.819 161.298 188.697C161.298 185.512 162.444 182.89 164.736 180.829C167.028 178.706 169.97 177.645 173.563 177.645C177.156 177.645 180.098 178.706 182.39 180.829C184.682 182.89 185.828 185.512 185.828 188.697C185.828 191.819 184.682 194.473 182.39 196.658C180.098 198.844 177.156 199.937 173.563 199.937Z" fill="#42BBA7"/>
</svg>
