<svg width="281" height="281" viewBox="0 0 281 281" fill="none" xmlns="http://www.w3.org/2000/svg">
<path d="M90.7988 2.10547V279.595H60.5118V64.746C54.4196 66.5883 48.8932 67.5096 43.9324 67.5096C30.5295 67.5096 20.3034 64.3073 13.2538 57.9029C6.29125 51.4985 2.81 42.1551 2.81 29.8726V2.10547H33.0969V26.451C33.0969 32.0659 34.3154 36.2332 36.7523 38.9528C39.1891 41.5848 42.8879 42.9007 47.8488 42.9007C52.9837 42.9007 57.2046 42.1989 60.5118 40.7952V2.10547H90.7988Z" fill="#42BBA7"/>
<path d="M195.322 2.10547V279.595H165.034V26.1878H137.228V279.595H106.941V2.10547H195.322Z" fill="#42BBA7"/>
<path d="M230.41 244.327C230.41 240.203 231.323 51.4109 233.151 48.6911C234.979 45.8838 237.59 42.857 240.984 39.6109C243.161 37.5054 244.727 35.7946 245.684 34.4786C246.728 33.1626 247.251 31.7589 247.251 30.2675C247.251 28.3374 246.423 26.8459 244.769 25.7931C243.117 24.6527 241.028 24.0824 238.504 24.0824C235.718 24.0824 233.108 24.9158 230.671 26.5827C228.234 28.162 226.319 30.3113 224.926 33.031L201.689 21.3189C205.171 14.6512 210.306 9.43118 217.094 5.65871C223.97 1.88624 232.411 0 242.42 0C253.038 0 261.655 2.1933 268.268 6.5799C274.883 10.9665 278.19 17.1515 278.19 25.1352C278.19 28.8199 277.537 32.066 276.231 34.8734C275.013 37.5932 273.534 39.918 271.793 41.8481C270.052 43.6904 267.834 45.7521 265.135 48.0332C262.35 50.4897 260.348 52.4637 259.13 53.9551C257.912 55.4465 257.302 242.485 257.302 244.327H230.41ZM243.856 280.911C238.808 280.911 234.674 279.376 231.454 276.305C228.234 273.235 226.624 269.506 226.624 265.119C226.624 260.644 228.234 256.96 231.454 254.065C234.674 251.082 238.808 249.591 243.856 249.591C248.904 249.591 253.038 251.082 256.258 254.065C259.478 256.96 261.088 260.644 261.088 265.119C261.088 269.506 259.478 273.235 256.258 276.305C253.038 279.376 248.904 280.911 243.856 280.911Z" fill="#42BBA7"/>
</svg>
