<svg width="64" height="64" viewBox="0 0 64 64" fill="none" xmlns="http://www.w3.org/2000/svg">
<rect width="64" height="64" rx="32" fill="#4EA89D"/>
<path d="M22 30.5C21.1716 30.5 20.5 31.1716 20.5 32C20.5 32.8284 21.1716 33.5 22 33.5L22 30.5ZM43.0607 33.0607C43.6464 32.4749 43.6464 31.5251 43.0607 30.9393L33.5147 21.3934C32.9289 20.8076 31.9792 20.8076 31.3934 21.3934C30.8076 21.9792 30.8076 22.9289 31.3934 23.5147L39.8787 32L31.3934 40.4853C30.8076 41.0711 30.8076 42.0208 31.3934 42.6066C31.9792 43.1924 32.9289 43.1924 33.5147 42.6066L43.0607 33.0607ZM22 33.5L42 33.5L42 30.5L22 30.5L22 33.5Z" fill="white"/>
</svg>
