<svg width="64" height="65" viewBox="0 0 64 65" fill="none" xmlns="http://www.w3.org/2000/svg">
<rect y="0.5" width="64" height="64" rx="32" fill="#333333"/>
<path d="M42 34C42.8284 34 43.5 33.3284 43.5 32.5C43.5 31.6716 42.8284 31 42 31L42 34ZM20.9393 31.4393C20.3536 32.0251 20.3536 32.9749 20.9393 33.5607L30.4853 43.1066C31.0711 43.6924 32.0208 43.6924 32.6066 43.1066C33.1924 42.5208 33.1924 41.5711 32.6066 40.9853L24.1213 32.5L32.6066 24.0147C33.1924 23.4289 33.1924 22.4792 32.6066 21.8934C32.0208 21.3076 31.0711 21.3076 30.4853 21.8934L20.9393 31.4393ZM42 31L22 31L22 34L42 34L42 31Z" fill="white"/>
</svg>
